<svg xmlns="http://www.w3.org/2000/svg" xmlns:xlink="http://www.w3.org/1999/xlink" width="157" height="36" viewBox="0 0 157 36">
  <defs>
    <linearGradient id="linear-gradient" x1="0.12" y1="0.165" x2="0.884" y2="0.767" gradientUnits="objectBoundingBox">
      <stop offset="0" stop-color="#ffd52e"/>
      <stop offset="1" stop-color="#cb0000"/>
    </linearGradient>
  </defs>
  <g id="Logo_light" data-name="Logo light" transform="translate(-41 -81.5)">
    <path id="Path_7004" data-name="Path 7004" d="M9.435-.636h3.273L7.783-11.212h-3.1L-.224-.636H2.985L3.859-2.69h4.7ZM4.78-4.9,6.21-8.281,7.64-4.9ZM13.438-.636H21.89V-3.008H16.584v-8.2H13.438Zm9.532,0h8.452V-3.008H26.116v-8.2H22.97Zm9.532,0H37.76c3.686,0,6.212-2.04,6.212-5.288s-2.526-5.288-6.212-5.288H32.5Zm3.146-2.387v-5.8h1.986c1.89,0,3.161,1.073,3.161,2.9s-1.271,2.9-3.161,2.9Zm15.426,2.6c3.559,0,6.18-2.327,6.18-5.5s-2.621-5.5-6.18-5.5-6.18,2.327-6.18,5.5S47.515-.424,51.073-.424Zm0-2.478a2.9,2.9,0,0,1-3-3.022,2.9,2.9,0,0,1,3-3.022,2.9,2.9,0,0,1,3,3.022A2.9,2.9,0,0,1,51.073-2.9Zm20.6,2.266-.032-10.577H69.057l-3.813,6.1-3.908-6.1H58.746V-.636h2.907V-6.09L64.5-1.678h1.4l2.86-4.563.032,5.606Zm10.39,0H85.34L80.415-11.212h-3.1L72.409-.636h3.209l.874-2.055h4.7ZM77.413-4.9l1.43-3.385L80.272-4.9ZM86.071-.636h3.146V-11.212H86.071ZM98.8-11.212v5.636l-4.909-5.636H91.3V-.636H94.38V-6.272L99.288-.636h2.589V-11.212ZM107.851-.424c3.3,0,4.925-1.571,4.925-3.415,0-3.9-6.307-2.69-6.307-4.306,0-.529.477-.952,1.8-.952a6.831,6.831,0,0,1,3.082.816l.969-2.221a8.675,8.675,0,0,0-4.035-.922c-3.3,0-4.925,1.541-4.925,3.43,0,3.929,6.323,2.7,6.323,4.382,0,.514-.508.861-1.811.861a7.274,7.274,0,0,1-3.67-1.043l-1.033,2.206A9.1,9.1,0,0,0,107.851-.424Z" transform="translate(85.224 105.424)" fill="#03050e"/>
    <g id="logo" transform="translate(40.801 80.833)">
      <circle id="Ellipse_20" data-name="Ellipse 20" cx="18" cy="18" r="18" transform="translate(0.199 0.667)" fill="url(#linear-gradient)"/>
      <path id="Path_7446" data-name="Path 7446" d="M12.929,28.728a14.434,14.434,0,0,1-1.43-.218c-.464-.095-.928-.214-1.38-.355s-.892-.3-1.323-.484-.851-.385-1.259-.606-.8-.463-1.187-.721-.754-.536-1.109-.829-.7-.6-1.023-.929-.637-.669-.929-1.023-.572-.728-.829-1.109-.5-.782-.721-1.187-.426-.832-.606-1.259S.786,19.13.647,18.683s-.26-.916-.355-1.38a14.437,14.437,0,0,1-.218-1.43,14.615,14.615,0,0,1,0-2.945A14.435,14.435,0,0,1,.293,11.5c.095-.464.214-.928.355-1.38s.3-.892.484-1.323.385-.851.606-1.259.463-.8.721-1.187S3,5.6,3.288,5.241s.6-.7.929-1.023.669-.637,1.023-.929.728-.572,1.109-.829.782-.5,1.187-.721.832-.426,1.259-.606S9.672.786,10.119.647s.916-.26,1.38-.355a14.435,14.435,0,0,1,1.43-.218,14.615,14.615,0,0,1,2.945,0A14.437,14.437,0,0,1,17.3.293c.464.095.928.214,1.38.355s.892.3,1.323.484.851.385,1.259.606.8.463,1.187.721.754.536,1.109.829.7.6,1.023.929.637.669.929,1.023.572.728.829,1.109.5.782.721,1.187.426.832.606,1.259.345.876.484,1.323.26.916.355,1.38a14.436,14.436,0,0,1,.218,1.43,14.615,14.615,0,0,1,0,2.945,14.437,14.437,0,0,1-.218,1.43c-.095.464-.214.928-.355,1.38s-.3.892-.484,1.323-.385.851-.606,1.259-.463.8-.721,1.187-.536.754-.829,1.109-.6.7-.929,1.023-.669.637-1.023.929-.728.572-1.109.829-.782.5-1.187.721-.832.426-1.259.606-.876.345-1.323.484-.916.26-1.38.355a14.436,14.436,0,0,1-1.43.218,14.615,14.615,0,0,1-2.945,0ZM14.4,27.243a12.791,12.791,0,0,0,4.179-.7.735.735,0,0,1-.118-.245,5.152,5.152,0,0,0-.534-1.231H14.116a7.372,7.372,0,0,1,1.142-1.142h1.815A10.183,10.183,0,0,0,15.6,22.584a.8.8,0,0,1-.168-.152l.137-.091.716-.472c.152-.107.3-.2.457-.32a8.739,8.739,0,0,1,3.2,4.341.788.788,0,0,1,.018.089,12.84,12.84,0,0,0,.006-23.151.729.729,0,0,1-.023.139c-.762,2.787-3.153,4.341-5.239,5.727l-.716.472c-1.645,1.1-3.823,2.848-3.823,5.27a4.67,4.67,0,0,0,.684,2.363h3.679a8.007,8.007,0,0,1-1.234,1.142H11.68a9.941,9.941,0,0,0,1.42,1.292.87.87,0,0,1,.122.107c-.427.274-.868.564-1.31.9a7.641,7.641,0,0,1-3.275-5.8C8.637,11.282,11.2,9.2,13.13,7.9l.731-.487c1.965-1.279,3.991-2.62,4.6-4.843a.731.731,0,0,1,.157-.3,12.859,12.859,0,0,0-8.4-.011.734.734,0,0,1,.122.249,5.173,5.173,0,0,0,.57,1.282h3.723a6.859,6.859,0,0,1-1.158,1.142h-1.7A10.283,10.283,0,0,0,13.2,6.225a.8.8,0,0,1,.168.152l-.137.091-.716.472c-.152.107-.3.2-.457.32a8.739,8.739,0,0,1-3.2-4.341.786.786,0,0,1-.018-.093,12.84,12.84,0,0,0,0,23.146.729.729,0,0,1,.023-.13c.762-2.787,3.153-4.341,5.24-5.727l.716-.472c1.645-1.1,3.823-2.848,3.823-5.27a4.651,4.651,0,0,0-.652-2.313H14.943a7.859,7.859,0,0,1,1.219-1.142h1A9.867,9.867,0,0,0,15.7,9.576a.871.871,0,0,1-.122-.107c.427-.274.868-.564,1.31-.9a7.641,7.641,0,0,1,3.275,5.8c0,3.153-2.559,5.239-4.493,6.534l-.731.487c-1.965,1.279-3.991,2.62-4.6,4.843a.731.731,0,0,1-.152.293A12.788,12.788,0,0,0,14.4,27.243Zm-1.582-12.83a1.663,1.663,0,1,1,1.663,1.663A1.663,1.663,0,0,1,12.819,14.412Z" transform="translate(3.812 4.15)" fill="#fff"/>
    </g>
  </g>
</svg>
