<svg width="78" height="20" viewBox="0 0 78 20" fill="none" xmlns="http://www.w3.org/2000/svg">
<path d="M6.87517 13.0702C6.10062 13.0702 5.47273 12.445 5.47273 11.6741V7.23155C5.47273 3.24419 8.73141 0 12.7365 0C16.7414 0 19.9994 3.24419 19.9994 7.23155C19.9994 8.00271 19.3718 8.62785 18.5972 8.62785C17.8229 8.62785 17.195 8.00271 17.195 7.23155C17.195 4.7838 15.1948 2.79215 12.7363 2.79215C10.2773 2.79215 8.27716 4.7838 8.27716 7.23155V11.6741C8.27761 12.445 7.64972 13.0702 6.87517 13.0702Z" fill="#1E1E1E"/>
<path d="M7.26312 20.0001C3.25823 20.0001 0 16.7564 0 12.7688C0 11.9976 0.62789 11.3727 1.40244 11.3727C2.17699 11.3727 2.80465 11.9976 2.80465 12.7688C2.80465 15.2163 4.80483 17.208 7.26335 17.208C9.7221 17.208 11.7225 15.2163 11.7225 12.7688V8.32599C11.7225 7.55483 12.3504 6.92969 13.1247 6.92969C13.8993 6.92969 14.5269 7.55483 14.5269 8.32599V12.7688C14.5265 16.7564 11.2682 20.0001 7.26312 20.0001Z" fill="#1E1E1E"/>
<path d="M32.5781 9.288C32.5781 9.776 32.4661 10.224 32.2421 10.632C32.0181 11.032 31.6741 11.356 31.2101 11.604C30.7461 11.852 30.1701 11.976 29.4821 11.976H28.2101V15H26.1581V6.576H29.4821C30.1541 6.576 30.7221 6.692 31.1861 6.924C31.6501 7.156 31.9981 7.476 32.2301 7.884C32.4621 8.292 32.5781 8.76 32.5781 9.288ZM29.3261 10.344C29.7181 10.344 30.0101 10.252 30.2021 10.068C30.3941 9.884 30.4901 9.624 30.4901 9.288C30.4901 8.952 30.3941 8.692 30.2021 8.508C30.0101 8.324 29.7181 8.232 29.3261 8.232H28.2101V10.344H29.3261ZM39.9583 11.544C39.9583 11.736 39.9463 11.936 39.9223 12.144H35.2783C35.3103 12.56 35.4423 12.88 35.6743 13.104C35.9143 13.32 36.2063 13.428 36.5503 13.428C37.0623 13.428 37.4183 13.212 37.6183 12.78H39.8023C39.6903 13.22 39.4863 13.616 39.1903 13.968C38.9023 14.32 38.5383 14.596 38.0983 14.796C37.6583 14.996 37.1663 15.096 36.6223 15.096C35.9663 15.096 35.3823 14.956 34.8703 14.676C34.3583 14.396 33.9583 13.996 33.6703 13.476C33.3823 12.956 33.2383 12.348 33.2383 11.652C33.2383 10.956 33.3783 10.348 33.6583 9.828C33.9463 9.308 34.3463 8.908 34.8583 8.628C35.3703 8.348 35.9583 8.208 36.6223 8.208C37.2703 8.208 37.8463 8.344 38.3503 8.616C38.8543 8.888 39.2463 9.276 39.5263 9.78C39.8143 10.284 39.9583 10.872 39.9583 11.544ZM37.8583 11.004C37.8583 10.652 37.7383 10.372 37.4983 10.164C37.2583 9.956 36.9583 9.852 36.5983 9.852C36.2543 9.852 35.9623 9.952 35.7223 10.152C35.4903 10.352 35.3463 10.636 35.2903 11.004H37.8583ZM47.3529 11.544C47.3529 11.736 47.3409 11.936 47.3169 12.144H42.6729C42.7049 12.56 42.8369 12.88 43.0689 13.104C43.3089 13.32 43.6009 13.428 43.9449 13.428C44.4569 13.428 44.8129 13.212 45.0129 12.78H47.1969C47.0849 13.22 46.8809 13.616 46.5849 13.968C46.2969 14.32 45.9329 14.596 45.4929 14.796C45.0529 14.996 44.5609 15.096 44.0169 15.096C43.3609 15.096 42.7769 14.956 42.2649 14.676C41.7529 14.396 41.3529 13.996 41.0649 13.476C40.7769 12.956 40.6329 12.348 40.6329 11.652C40.6329 10.956 40.7729 10.348 41.0529 9.828C41.3409 9.308 41.7409 8.908 42.2529 8.628C42.7649 8.348 43.3529 8.208 44.0169 8.208C44.6649 8.208 45.2409 8.344 45.7449 8.616C46.2489 8.888 46.6409 9.276 46.9209 9.78C47.2089 10.284 47.3529 10.872 47.3529 11.544ZM45.2529 11.004C45.2529 10.652 45.1329 10.372 44.8929 10.164C44.6529 9.956 44.3529 9.852 43.9929 9.852C43.6489 9.852 43.3569 9.952 43.1169 10.152C42.8849 10.352 42.7409 10.636 42.6849 11.004H45.2529ZM50.4874 9.42C50.7274 9.052 51.0274 8.764 51.3874 8.556C51.7474 8.34 52.1474 8.232 52.5874 8.232V10.404H52.0234C51.5114 10.404 51.1274 10.516 50.8714 10.74C50.6154 10.956 50.4874 11.34 50.4874 11.892V15H48.4354V8.304H50.4874V9.42ZM55.6202 13.416H58.3082V15H53.5682V6.576H55.6202V13.416ZM60.319 7.608C59.959 7.608 59.663 7.504 59.431 7.296C59.207 7.08 59.095 6.816 59.095 6.504C59.095 6.184 59.207 5.92 59.431 5.712C59.663 5.496 59.959 5.388 60.319 5.388C60.671 5.388 60.959 5.496 61.183 5.712C61.415 5.92 61.531 6.184 61.531 6.504C61.531 6.816 61.415 7.08 61.183 7.296C60.959 7.504 60.671 7.608 60.319 7.608ZM61.339 8.304V15H59.287V8.304H61.339ZM66.906 8.232C67.69 8.232 68.314 8.488 68.778 9C69.25 9.504 69.486 10.2 69.486 11.088V15H67.446V11.364C67.446 10.916 67.33 10.568 67.098 10.32C66.866 10.072 66.554 9.948 66.162 9.948C65.77 9.948 65.458 10.072 65.226 10.32C64.994 10.568 64.878 10.916 64.878 11.364V15H62.826V8.304H64.878V9.192C65.086 8.896 65.366 8.664 65.718 8.496C66.07 8.32 66.466 8.232 66.906 8.232ZM75.004 15L72.964 12.192V15H70.912V6.12H72.964V11.028L74.992 8.304H77.524L74.74 11.664L77.548 15H75.004Z" fill="#1E1E1E"/>
</svg>
