<svg fill="none" height="416" viewBox="0 0 1501 416" width="1501" xmlns="http://www.w3.org/2000/svg"><path d="m275.659 328.553c-134.93-2.779-147.704-52.409-147.704-117.058 0-64.65 14.77-115.6692 147.704-117.0585 132.933-1.3893 147.703 52.4085 147.703 117.0585 0 64.649-12.774 119.837-147.703 117.058z" fill="#6dc4fe"/><path clip-rule="evenodd" d="m234.463 287.906c-.029 0-.059.001-.089.001-35.415 0-64.125-28.71-64.125-64.125 0-30.702 21.576-56.364 50.392-62.652 14.542-20.304 38.331-33.535 65.211-33.535 41.433 0 75.523 31.435 79.722 71.756 11.04 9.181 18.069 23.021 18.069 38.503 0 27.644-22.41 50.053-50.053 50.053-.092 0-.185 0-.277-.001h-47.122c-.113.001-.226.001-.339.001s-.226 0-.339-.001zm34.555-95.382c7.601 0 13.762-6.161 13.762-13.762 0-7.6-6.161-13.761-13.762-13.761-7.6 0-13.762 6.161-13.762 13.761 0 7.601 6.162 13.762 13.762 13.762zm55.044 0c7.6 0 13.762-6.161 13.762-13.762 0-7.6-6.162-13.761-13.762-13.761-7.601 0-13.762 6.161-13.762 13.761 0 7.601 6.161 13.762 13.762 13.762zm-2.461 12.462c5.225-.735 9.635-1.356 12.29-1.356 6.514 0 11.795 5.282 11.795 11.796 0 27.142-22.004 49.146-49.146 49.146-27.143 0-49.147-22.004-49.147-49.146 0-6.514 5.282-11.796 11.796-11.796 2.655 0 7.065.621 12.29 1.356 7.594 1.069 16.909 2.38 25.061 2.38 8.151 0 17.467-1.311 25.061-2.38zm-25.063 49.757c10.771 0 20.531-4.332 27.631-11.348h-.004c3.16-3.123 2.125-8.463-1.952-10.223-6.888-2.973-15.862-4.772-25.677-4.772s-18.789 1.799-25.677 4.772c-4.077 1.76-5.112 7.102-1.952 10.223 7.102 7.016 16.86 11.348 27.631 11.348z" fill="#f7f9fb" fill-rule="evenodd"/><g fill="#1b1b1c"><path d="m1202.4 286.021v-123.446h26.24l1.87 14.055c3.12-4.217 6.48-7.418 10.07-9.604 3.75-2.343 7.58-3.983 11.48-4.919 4.06-.937 7.89-1.406 11.48-1.406 7.81 0 14.44 1.562 19.91 4.685 5.62 3.123 9.99 7.808 13.12 14.055 3.12-4.373 6.63-7.887 10.54-10.541 3.9-2.811 8.04-4.841 12.41-6.091 4.38-1.405 8.98-2.108 13.82-2.108 9.53 0 17.18 2.03 22.96 6.09 5.78 3.904 9.99 9.37 12.65 16.397 2.65 6.872 3.98 14.758 3.98 23.659v79.174h-28.58v-70.038c0-3.124-.15-6.403-.47-9.839-.31-3.435-1.17-6.637-2.57-9.604-1.25-2.967-3.13-5.387-5.62-7.261-2.5-1.874-6.02-2.811-10.55-2.811-4.52 0-8.27 1.015-11.24 3.045-2.81 1.874-5.15 4.451-7.03 7.73-1.71 3.123-2.96 6.637-3.74 10.541-.63 3.748-.94 7.496-.94 11.244v66.993h-28.58v-70.273c0-2.967-.23-6.09-.7-9.369-.31-3.436-1.1-6.637-2.34-9.604-1.1-3.124-2.97-5.622-5.63-7.496-2.49-1.874-6.01-2.811-10.54-2.811-6.56 0-11.55 1.796-14.99 5.387-3.28 3.592-5.54 7.965-6.79 13.118-1.1 5.153-1.64 10.073-1.64 14.757v66.291z"/><path d="m1126.58 287.661c-17.81 0-31.47-4.607-41-13.821-9.37-9.213-14.05-23.268-14.05-42.163v-69.102h28.58v67.228c0 6.559.86 12.258 2.57 17.099 1.88 4.842 4.77 8.589 8.67 11.244 4.06 2.499 9.14 3.748 15.23 3.748 6.56 0 11.71-1.327 15.46-3.982 3.9-2.811 6.63-6.637 8.2-11.478 1.56-4.841 2.34-10.385 2.34-16.631v-67.228h28.58v69.102c0 19.364-4.85 33.575-14.53 42.632-9.52 8.901-22.88 13.352-40.05 13.352z"/><path d="m1028.41 287.427c-13.59 0-23.5-3.748-29.751-11.244-6.246-7.496-9.37-17.881-9.37-31.154v-57.156h-18.973v-25.298h18.973v-34.668h28.581v34.668h37.48v25.298h-37.48v51.768c0 4.06.47 7.73 1.4 11.009.94 3.28 2.66 5.856 5.16 7.73 2.49 1.874 5.93 2.889 10.3 3.046 3.75 0 6.95-.625 9.61-1.874 2.65-1.25 4.84-2.655 6.56-4.217l9.6 21.785c-2.97 2.499-6.33 4.529-10.07 6.09-3.59 1.562-7.26 2.655-11.01 3.28-3.75.624-7.42.937-11.01.937z"/><path d="m906.697 287.661c-12.806 0-23.581-2.577-32.326-7.73-8.745-5.31-15.382-12.727-19.911-22.253s-6.793-20.536-6.793-33.029 2.343-23.502 7.027-33.028c4.685-9.682 11.556-17.256 20.614-22.722 9.057-5.465 20.067-8.198 33.028-8.198 9.526 0 17.959 1.64 25.299 4.919 7.495 3.279 13.508 8.12 18.036 14.523 4.685 6.247 7.652 14.055 8.902 23.424h-28.11c-1.874-5.934-4.997-10.228-9.369-12.883-4.217-2.811-9.292-4.216-15.226-4.216-7.965 0-14.289 1.952-18.974 5.856-4.529 3.748-7.808 8.511-9.838 14.289s-3.045 11.79-3.045 18.036c0 6.559 1.093 12.728 3.279 18.506 2.186 5.621 5.544 10.15 10.072 13.586 4.685 3.435 10.698 5.153 18.037 5.153 5.934 0 11.244-1.327 15.929-3.982 4.841-2.655 7.964-6.949 9.37-12.883h29.046c-1.093 9.525-4.295 17.49-9.604 23.892-5.154 6.247-11.712 10.932-19.677 14.055-7.964 3.123-16.553 4.685-25.766 4.685z"/><path d="m715.88 286.021v-123.446h26.703l1.64 15.694c3.279-4.372 7.105-7.808 11.478-10.307 4.372-2.498 8.979-4.294 13.82-5.387 4.841-1.25 9.37-1.874 13.586-1.874 11.713 0 20.926 2.576 27.641 7.73 6.871 5.153 11.712 12.024 14.523 20.613s4.217 18.193 4.217 28.812v68.165h-28.578v-63.48c0-4.529-.312-8.901-.937-13.118-.625-4.372-1.874-8.276-3.748-11.712-1.718-3.435-4.216-6.168-7.496-8.198-3.279-2.03-7.652-3.045-13.117-3.045-6.715 0-12.415 1.795-17.1 5.387s-8.199 8.433-10.541 14.523c-2.343 5.934-3.514 12.728-3.514 20.38v59.263z"/><path d="m628.526 287.661c-5.778 0-11.244-.781-16.397-2.342-5.154-1.562-9.76-3.826-13.821-6.793-4.06-3.124-7.339-6.95-9.838-11.478-2.342-4.685-3.513-10.151-3.513-16.397 0-7.965 1.561-14.445 4.684-19.443 3.124-5.153 7.34-9.057 12.65-11.712 5.465-2.655 11.634-4.45 18.505-5.387 6.871-1.094 14.054-1.64 21.55-1.64h24.127c0-5.466-.859-10.151-2.576-14.055-1.718-4.06-4.451-7.261-8.199-9.604-3.592-2.342-8.276-3.513-14.054-3.513-3.748 0-7.262.468-10.541 1.405-3.124.781-5.857 2.108-8.199 3.982-2.186 1.718-3.748 3.982-4.685 6.793h-29.28c1.093-6.402 3.279-11.868 6.559-16.397 3.435-4.685 7.573-8.511 12.414-11.478 4.998-2.967 10.463-5.153 16.397-6.559 5.935-1.561 11.947-2.342 18.037-2.342 17.959 0 30.998 5.153 39.119 15.46 8.277 10.307 12.415 24.752 12.415 43.335v66.525h-25.298l-.703-15.928c-3.592 5.309-7.886 9.213-12.884 11.712-4.997 2.499-9.838 4.06-14.523 4.685-4.685.781-8.667 1.171-11.946 1.171zm5.622-23.19c6.246 0 11.79-1.171 16.631-3.514 4.841-2.342 8.667-5.622 11.478-9.838 2.967-4.216 4.451-9.057 4.451-14.523v-3.982h-22.488c-3.748 0-7.496.156-11.244.468-3.591.156-6.871.781-9.838 1.874-2.967.937-5.387 2.421-7.261 4.451-1.718 2.03-2.577 4.919-2.577 8.667s.937 6.793 2.811 9.135c2.03 2.343 4.607 4.139 7.73 5.388 3.279 1.249 6.715 1.874 10.307 1.874z"/><path d="m519.532 287.661c-5.934 0-11.868-.625-17.802-1.874-5.778-1.249-11.244-3.279-16.398-6.09-5.153-2.968-9.447-6.95-12.883-11.947s-5.7-11.244-6.793-18.739h28.812c1.249 3.435 3.201 6.246 5.856 8.432 2.811 2.031 6.012 3.592 9.604 4.685 3.748.937 7.418 1.406 11.01 1.406 2.186 0 4.528-.156 7.027-.469 2.655-.312 5.075-.937 7.261-1.874 2.343-.937 4.217-2.264 5.622-3.982 1.406-1.874 2.108-4.294 2.108-7.261 0-2.811-.78-4.998-2.342-6.559-1.562-1.718-3.67-3.045-6.325-3.982-2.654-1.093-5.856-1.952-9.604-2.577-6.715-1.405-13.898-2.889-21.55-4.451-7.652-1.717-14.289-4.372-19.911-7.964-2.342-1.405-4.372-3.045-6.09-4.919s-3.201-3.904-4.451-6.09c-1.093-2.343-1.952-4.841-2.576-7.496-.469-2.655-.703-5.544-.703-8.667 0-6.559 1.327-12.103 3.982-16.631 2.811-4.685 6.481-8.433 11.009-11.244 4.685-2.967 9.995-5.154 15.929-6.559s12.025-2.108 18.271-2.108c8.433 0 16.085 1.327 22.956 3.982s12.571 6.715 17.1 12.181c4.685 5.465 7.496 12.415 8.433 20.847h-27.173c-.781-3.904-3.201-7.027-7.261-9.369-3.904-2.343-8.902-3.514-14.992-3.514-2.186 0-4.451.234-6.793.703-2.342.312-4.607.937-6.793 1.874-2.03.78-3.748 2.03-5.153 3.747-1.25 1.718-1.874 3.826-1.874 6.325 0 2.342.546 4.373 1.639 6.09 1.25 1.718 3.046 3.202 5.388 4.451 2.499 1.093 5.388 2.03 8.667 2.811 5.31 1.093 10.853 2.186 16.631 3.279s10.775 2.187 14.992 3.28c4.997 1.405 9.526 3.435 13.586 6.09 4.06 2.499 7.183 5.856 9.37 10.073 2.342 4.06 3.513 9.291 3.513 15.694 0 7.496-1.561 13.742-4.684 18.739-2.968 4.998-6.95 8.902-11.947 11.713s-10.541 4.841-16.631 6.09c-6.091 1.249-12.103 1.874-18.037 1.874z"/></g></svg>